<svg version="1.1" id="Layer_1" xmlns="http://www.w3.org/2000/svg" x="0" y="0" viewBox="0 0 509.9 509.1" xml:space="preserve"><style>.st0{fill:#fff}</style><path class="st0" d="M0 235.7c1.6-10.1 2.7-20.4 4.8-30.4C17.1 145 47.5 95.5 95.1 56.7c39.1-31.8 84-49.9 134-55.4 38.2-4.2 75.2 2 111.6 13.3 3.2 1 6.3 1.9 10 3.1-1 1.2-1.6 2.3-2.5 3.2-11.6 11.7-23.3 23.3-34.8 35.1-2 2-3.8 2.5-6.5 1.8-71.5-17.1-135.2-1.7-190 47.4C81.8 136.6 60 176.3 53.3 223c-9.7 68.3 10 127.6 58.8 176.6 30.8 31 68.5 49.9 111.6 56.3 56.3 8.3 107.8-4.8 153.2-39.2 43.8-33.2 70-77.5 79-131.7.8-4.9 1.1-9.9 1.5-14.9.4-4.9.7-9.9 1-15.2h51.4c-1.3 13.6-2 27-4.1 40.2-7.8 47.7-27.6 90-59.6 126.3-39.6 44.9-88.8 73.3-148.1 83.7-9.1 1.6-18.4 2.7-27.5 4h-32.9c-2.9-.4-5.8-.8-8.8-1.1-50.3-5.7-95.5-23.9-134.6-56.1C45.4 411.7 15 360.5 3.9 298.1c-1.7-9.4-2.6-19-3.9-28.5v-33.9z"/><path class="st0" d="M383.3 347.3l-35 35.9-93.4-93.4-93.6 93.6-35-35.8 93.1-93.3-92.9-92.8 35.6-35.5 92.8 92.8 92.6-92.6 35.6 35.5-92.7 92.6z"/></svg>